G04 Layer: TopPasteMaskLayer*
G04 Panelize: , Column: 1, Row: 1, Board Size: 40mm x 44mm, Panelized Board Size: 40mm x 44mm*
G04 EasyEDA v6.5.51, 2026-01-13 16:39:07*
G04 a5c53f55c5354db29aced8c5a8fdd219,809016d531f24495855ce7608cadcef1,10*
G04 Gerber Generator version 0.2*
G04 Scale: 100 percent, Rotated: No, Reflected: No *
G04 Dimensions in millimeters *
G04 leading zeros omitted , absolute positions ,4 integer and 5 decimal *
%FSLAX45Y45*%
%MOMM*%

%ADD10R,0.9000X0.8000*%
%ADD11R,1.0000X3.5000*%
%ADD12R,1.5000X3.4000*%
%ADD13R,1.0000X3.8000*%
%ADD14R,0.8000X0.9000*%
%ADD15O,2.299995X1.199998*%
%ADD16O,2.999994X1.750009*%
%ADD17C,1.1430*%
%ADD18R,2.8000X2.8000*%
%ADD19R,0.0124X2.8000*%
%ADD20R,0.8000X1.0000*%
%ADD21O,0.799998X0.28001*%
%ADD22O,0.28001X0.799998*%

%LPD*%
G36*
X1859483Y8284972D02*
G01*
X1854504Y8279993D01*
X1854504Y8257184D01*
X1891487Y8257184D01*
X1891487Y8224164D01*
X1854504Y8224164D01*
X1854504Y8199983D01*
X1859483Y8195005D01*
X1939493Y8195005D01*
X1944522Y8199983D01*
X1944522Y8279993D01*
X1939493Y8284972D01*
G37*
G36*
X1700479Y8284972D02*
G01*
X1695500Y8279993D01*
X1695500Y8199983D01*
X1700479Y8195005D01*
X1780489Y8195005D01*
X1785518Y8199983D01*
X1785518Y8222792D01*
X1748485Y8222792D01*
X1748485Y8255762D01*
X1785518Y8255762D01*
X1785518Y8279993D01*
X1780489Y8284972D01*
G37*
G36*
X2110486Y7125004D02*
G01*
X2105507Y7119975D01*
X2105507Y7039965D01*
X2110486Y7034987D01*
X2190496Y7034987D01*
X2195474Y7039965D01*
X2195474Y7062774D01*
X2158492Y7062774D01*
X2158492Y7095794D01*
X2195474Y7095794D01*
X2195474Y7119975D01*
X2190496Y7125004D01*
G37*
G36*
X2269490Y7125004D02*
G01*
X2264511Y7119975D01*
X2264511Y7097166D01*
X2301494Y7097166D01*
X2301494Y7064197D01*
X2264511Y7064197D01*
X2264511Y7039965D01*
X2269490Y7034987D01*
X2349500Y7034987D01*
X2354478Y7039965D01*
X2354478Y7119975D01*
X2349500Y7125004D01*
G37*
G36*
X4195978Y5039969D02*
G01*
X4191000Y5034991D01*
X4191000Y4919980D01*
X4195978Y4915001D01*
X4237990Y4915509D01*
X4237990Y4959502D01*
X4282998Y4959502D01*
X4282998Y4914493D01*
X4323994Y4915001D01*
X4328972Y4919980D01*
X4328972Y5034991D01*
X4323994Y5039969D01*
G37*
G36*
X4195978Y4824984D02*
G01*
X4191000Y4820005D01*
X4191000Y4704994D01*
X4195978Y4700016D01*
X4323994Y4700016D01*
X4328972Y4704994D01*
X4328972Y4820005D01*
X4323994Y4824984D01*
X4282998Y4824476D01*
X4282998Y4780483D01*
X4237990Y4780483D01*
X4237990Y4824984D01*
G37*
G36*
X3145993Y7109968D02*
G01*
X3141014Y7104989D01*
X3141014Y6989978D01*
X3145993Y6985000D01*
X3188004Y6985508D01*
X3188004Y7029500D01*
X3233013Y7029500D01*
X3233013Y6984492D01*
X3274009Y6985000D01*
X3278987Y6989978D01*
X3278987Y7104989D01*
X3274009Y7109968D01*
G37*
G36*
X3145993Y6894982D02*
G01*
X3141014Y6890003D01*
X3141014Y6774992D01*
X3145993Y6769963D01*
X3274009Y6769963D01*
X3278987Y6774992D01*
X3278987Y6890003D01*
X3274009Y6894982D01*
X3233013Y6894474D01*
X3233013Y6850481D01*
X3188004Y6850481D01*
X3188004Y6894982D01*
G37*
G36*
X1417015Y7484973D02*
G01*
X1376019Y7484465D01*
X1370990Y7479487D01*
X1370990Y7364475D01*
X1376019Y7359497D01*
X1503984Y7359497D01*
X1509014Y7364475D01*
X1509014Y7479487D01*
X1503984Y7484465D01*
X1462024Y7484008D01*
X1462024Y7440015D01*
X1417015Y7440015D01*
G37*
G36*
X1376019Y7700467D02*
G01*
X1370990Y7695488D01*
X1370990Y7580477D01*
X1376019Y7575499D01*
X1417980Y7575956D01*
X1417980Y7620000D01*
X1462989Y7620000D01*
X1462989Y7574991D01*
X1503984Y7575499D01*
X1509014Y7580477D01*
X1509014Y7695488D01*
X1503984Y7700467D01*
G37*
G36*
X1395984Y8290458D02*
G01*
X1391005Y8285480D01*
X1391005Y8170468D01*
X1395984Y8165490D01*
X1437995Y8165998D01*
X1437995Y8209991D01*
X1483004Y8209991D01*
X1483004Y8164982D01*
X1524000Y8165490D01*
X1528978Y8170468D01*
X1528978Y8285480D01*
X1524000Y8290458D01*
G37*
G36*
X1436979Y8075015D02*
G01*
X1395984Y8074507D01*
X1391005Y8069478D01*
X1391005Y7954467D01*
X1395984Y7949488D01*
X1524000Y7949488D01*
X1528978Y7954467D01*
X1528978Y8069478D01*
X1524000Y8074507D01*
X1481988Y8073999D01*
X1481988Y8030006D01*
X1436979Y8030006D01*
G37*
G36*
X779983Y6955485D02*
G01*
X775004Y6950506D01*
X775004Y6870496D01*
X779983Y6865467D01*
X859993Y6865467D01*
X864971Y6870496D01*
X864971Y6950506D01*
X859993Y6955485D01*
X837184Y6955485D01*
X837184Y6918502D01*
X804214Y6918502D01*
X804214Y6955485D01*
G37*
G36*
X779983Y7114489D02*
G01*
X775004Y7109510D01*
X775004Y7029500D01*
X779983Y7024471D01*
X802792Y7024471D01*
X802792Y7061504D01*
X835812Y7061504D01*
X835812Y7024471D01*
X859993Y7024471D01*
X865022Y7029500D01*
X865022Y7109510D01*
X859993Y7114489D01*
G37*
G36*
X969975Y6725462D02*
G01*
X964996Y6720484D01*
X964996Y6640474D01*
X969975Y6635496D01*
X1049985Y6635496D01*
X1055014Y6640474D01*
X1055014Y6720484D01*
X1049985Y6725462D01*
X1027176Y6725462D01*
X1027176Y6688480D01*
X994206Y6688480D01*
X994206Y6725462D01*
G37*
G36*
X969975Y6884466D02*
G01*
X964996Y6879488D01*
X964996Y6799478D01*
X969975Y6794500D01*
X992784Y6794500D01*
X992784Y6831482D01*
X1025804Y6831482D01*
X1025804Y6794500D01*
X1049985Y6794500D01*
X1055014Y6799478D01*
X1055014Y6879488D01*
X1049985Y6884466D01*
G37*
G36*
X4000500Y7514996D02*
G01*
X3995470Y7509967D01*
X3995470Y7430008D01*
X4000500Y7424978D01*
X4080510Y7424978D01*
X4085488Y7430008D01*
X4085488Y7452766D01*
X4048506Y7452766D01*
X4048506Y7485786D01*
X4085488Y7485786D01*
X4085488Y7509967D01*
X4080510Y7514996D01*
G37*
G36*
X4159504Y7514996D02*
G01*
X4154474Y7509967D01*
X4154474Y7487208D01*
X4191508Y7487208D01*
X4191508Y7454188D01*
X4154474Y7454188D01*
X4154474Y7429957D01*
X4159504Y7424978D01*
X4239514Y7424978D01*
X4244492Y7429957D01*
X4244492Y7509967D01*
X4239514Y7514996D01*
G37*
G36*
X1369974Y6954469D02*
G01*
X1364996Y6949490D01*
X1364996Y6869480D01*
X1369974Y6864502D01*
X1392783Y6864502D01*
X1392783Y6901484D01*
X1425803Y6901484D01*
X1425803Y6864502D01*
X1449984Y6864502D01*
X1455013Y6869480D01*
X1455013Y6949490D01*
X1449984Y6954469D01*
G37*
G36*
X1369974Y6795465D02*
G01*
X1364996Y6790486D01*
X1364996Y6710476D01*
X1369974Y6705498D01*
X1449984Y6705498D01*
X1455013Y6710476D01*
X1455013Y6790486D01*
X1449984Y6795465D01*
X1427175Y6795465D01*
X1427175Y6758482D01*
X1394206Y6758482D01*
X1394206Y6795465D01*
G37*
G36*
X1369974Y7274509D02*
G01*
X1364996Y7269480D01*
X1364996Y7189470D01*
X1369974Y7184491D01*
X1392783Y7184491D01*
X1392783Y7221474D01*
X1425803Y7221474D01*
X1425803Y7184491D01*
X1449984Y7184491D01*
X1455013Y7189470D01*
X1455013Y7269480D01*
X1449984Y7274509D01*
G37*
G36*
X1369974Y7115505D02*
G01*
X1364996Y7110475D01*
X1364996Y7030466D01*
X1369974Y7025487D01*
X1449984Y7025487D01*
X1455013Y7030466D01*
X1455013Y7110475D01*
X1449984Y7115505D01*
X1427175Y7115505D01*
X1427175Y7078472D01*
X1394206Y7078472D01*
X1394206Y7115505D01*
G37*
G36*
X1002487Y7013702D02*
G01*
X1002487Y6953707D01*
X1027480Y6953707D01*
X1027480Y7013702D01*
G37*
G36*
X1052474Y7013702D02*
G01*
X1052474Y6953707D01*
X1077518Y6953707D01*
X1077518Y7013702D01*
G37*
G36*
X1102512Y7013702D02*
G01*
X1102512Y6953707D01*
X1127506Y6953707D01*
X1127506Y7013702D01*
G37*
G36*
X1152499Y7013702D02*
G01*
X1152499Y6953707D01*
X1177493Y6953707D01*
X1177493Y7013702D01*
G37*
G36*
X1199997Y7038746D02*
G01*
X1199997Y7013752D01*
X1259992Y7013752D01*
X1259992Y7038746D01*
G37*
G36*
X1199997Y7088733D02*
G01*
X1199997Y7063740D01*
X1259992Y7063740D01*
X1259992Y7088733D01*
G37*
G36*
X1127506Y7243267D02*
G01*
X1127506Y7108291D01*
X1152499Y7108291D01*
X1152499Y7243267D01*
G37*
G36*
X1077518Y7243267D02*
G01*
X1077518Y7063282D01*
X1102512Y7063282D01*
X1102512Y7243267D01*
G37*
G36*
X1027480Y7243267D02*
G01*
X1027480Y7108291D01*
X1052474Y7108291D01*
X1052474Y7243267D01*
G37*
G36*
X919987Y7088784D02*
G01*
X919987Y7063790D01*
X979982Y7063790D01*
X979982Y7088784D01*
G37*
G36*
X919987Y7038746D02*
G01*
X919987Y7013752D01*
X979982Y7013752D01*
X979982Y7038746D01*
G37*
G36*
X919987Y7188708D02*
G01*
X919987Y7163663D01*
X954989Y7163663D01*
X954989Y7138670D01*
X919987Y7138670D01*
X919987Y7113676D01*
X979982Y7113676D01*
X979982Y7188708D01*
G37*
G36*
X1199997Y7188860D02*
G01*
X1199997Y7113828D01*
X1259992Y7113828D01*
X1259992Y7138822D01*
X1224991Y7138822D01*
X1224991Y7163816D01*
X1259992Y7163816D01*
X1259992Y7188860D01*
G37*
G36*
X3780485Y5134965D02*
G01*
X3775506Y5129987D01*
X3775506Y5049977D01*
X3780485Y5044998D01*
X3860495Y5044998D01*
X3865473Y5049977D01*
X3865473Y5072786D01*
X3828491Y5072786D01*
X3828491Y5105806D01*
X3865473Y5105806D01*
X3865473Y5129987D01*
X3860495Y5134965D01*
G37*
G36*
X3939489Y5134965D02*
G01*
X3934510Y5129987D01*
X3934510Y5107178D01*
X3971493Y5107178D01*
X3971493Y5074208D01*
X3934510Y5074208D01*
X3934510Y5049977D01*
X3939489Y5044998D01*
X4019499Y5044998D01*
X4024477Y5049977D01*
X4024477Y5129987D01*
X4019499Y5134965D01*
G37*
G36*
X1519478Y5494985D02*
G01*
X1514500Y5490006D01*
X1514500Y5467197D01*
X1551482Y5467197D01*
X1551482Y5434177D01*
X1514500Y5434177D01*
X1514500Y5409996D01*
X1519478Y5404967D01*
X1599488Y5404967D01*
X1604518Y5409996D01*
X1604518Y5490006D01*
X1599488Y5494985D01*
G37*
G36*
X1360474Y5494985D02*
G01*
X1355496Y5490006D01*
X1355496Y5409996D01*
X1360474Y5404967D01*
X1440484Y5404967D01*
X1445514Y5409996D01*
X1445514Y5432806D01*
X1408480Y5432806D01*
X1408480Y5465775D01*
X1445514Y5465775D01*
X1445514Y5490006D01*
X1440484Y5494985D01*
G37*
G36*
X3410000Y6935470D02*
G01*
X3404971Y6930491D01*
X3404971Y6850481D01*
X3410000Y6845503D01*
X3490010Y6845503D01*
X3494989Y6850481D01*
X3494989Y6930491D01*
X3490010Y6935470D01*
X3467201Y6935470D01*
X3467201Y6898487D01*
X3434181Y6898487D01*
X3434181Y6935470D01*
G37*
G36*
X3410000Y7094474D02*
G01*
X3404971Y7089495D01*
X3404971Y7009485D01*
X3410000Y7004507D01*
X3432810Y7004507D01*
X3432810Y7041489D01*
X3465779Y7041489D01*
X3465779Y7004507D01*
X3490010Y7004507D01*
X3494989Y7009485D01*
X3494989Y7089495D01*
X3490010Y7094474D01*
G37*
G36*
X4100474Y5624982D02*
G01*
X4095496Y5620004D01*
X4095496Y5539994D01*
X4100474Y5535015D01*
X4180484Y5535015D01*
X4185513Y5539994D01*
X4185513Y5562803D01*
X4148480Y5562803D01*
X4148480Y5595772D01*
X4185513Y5595772D01*
X4185513Y5620004D01*
X4180484Y5624982D01*
G37*
G36*
X4259478Y5624982D02*
G01*
X4254500Y5620004D01*
X4254500Y5597194D01*
X4291482Y5597194D01*
X4291482Y5564174D01*
X4254500Y5564174D01*
X4254500Y5539994D01*
X4259478Y5534964D01*
X4339488Y5534964D01*
X4344466Y5539994D01*
X4344466Y5620004D01*
X4339488Y5624982D01*
G37*
G36*
X1026007Y6350000D02*
G01*
X1020978Y6344970D01*
X1020978Y6230010D01*
X1026007Y6224981D01*
X1068019Y6225489D01*
X1068019Y6269482D01*
X1112977Y6269482D01*
X1112977Y6224473D01*
X1153972Y6224981D01*
X1159002Y6230010D01*
X1159002Y6344970D01*
X1153972Y6350000D01*
G37*
G36*
X1026007Y6134963D02*
G01*
X1020978Y6129985D01*
X1020978Y6014974D01*
X1026007Y6009995D01*
X1153972Y6009995D01*
X1159002Y6014974D01*
X1159002Y6129985D01*
X1153972Y6134963D01*
X1112977Y6134506D01*
X1112977Y6090462D01*
X1068019Y6090462D01*
X1068019Y6134963D01*
G37*
G36*
X3836974Y4175506D02*
G01*
X3795979Y4174998D01*
X3791000Y4169968D01*
X3791000Y4055008D01*
X3795979Y4049979D01*
X3923995Y4049979D01*
X3928973Y4055008D01*
X3928973Y4169968D01*
X3923995Y4174998D01*
X3881983Y4174490D01*
X3881983Y4130497D01*
X3836974Y4130497D01*
G37*
G36*
X3795979Y4389983D02*
G01*
X3791000Y4385005D01*
X3791000Y4269994D01*
X3795979Y4265015D01*
X3836974Y4265472D01*
X3836974Y4309465D01*
X3881983Y4309465D01*
X3881983Y4265015D01*
X3923995Y4265015D01*
X3928973Y4269994D01*
X3928973Y4385005D01*
X3923995Y4389983D01*
G37*
G36*
X3906977Y4565497D02*
G01*
X3865981Y4564989D01*
X3861003Y4560011D01*
X3861003Y4445000D01*
X3865981Y4439970D01*
X3993997Y4439970D01*
X3998976Y4445000D01*
X3998976Y4560011D01*
X3993997Y4564989D01*
X3951986Y4564481D01*
X3951986Y4520488D01*
X3906977Y4520488D01*
G37*
G36*
X3865981Y4779975D02*
G01*
X3861003Y4774996D01*
X3861003Y4659985D01*
X3865981Y4655007D01*
X3906977Y4655515D01*
X3906977Y4699508D01*
X3951986Y4699508D01*
X3951986Y4655007D01*
X3993997Y4655007D01*
X3998976Y4659985D01*
X3998976Y4774996D01*
X3993997Y4779975D01*
G37*
G36*
X2699512Y6304991D02*
G01*
X2694482Y6299962D01*
X2694482Y6277203D01*
X2731516Y6277203D01*
X2731516Y6244183D01*
X2694482Y6244183D01*
X2694482Y6220002D01*
X2699512Y6214973D01*
X2779522Y6214973D01*
X2784500Y6220002D01*
X2784500Y6299962D01*
X2779522Y6304991D01*
G37*
G36*
X2540508Y6304991D02*
G01*
X2535478Y6300012D01*
X2535478Y6220002D01*
X2540508Y6214973D01*
X2620467Y6214973D01*
X2625496Y6220002D01*
X2625496Y6242812D01*
X2588514Y6242812D01*
X2588514Y6275781D01*
X2625496Y6275781D01*
X2625496Y6300012D01*
X2620467Y6304991D01*
G37*
G36*
X1630476Y6314998D02*
G01*
X1625498Y6309969D01*
X1625498Y6230010D01*
X1630476Y6224981D01*
X1710486Y6224981D01*
X1715516Y6230010D01*
X1715516Y6252768D01*
X1678482Y6252768D01*
X1678482Y6285788D01*
X1715516Y6285788D01*
X1715516Y6309969D01*
X1710486Y6314998D01*
G37*
G36*
X1789480Y6314998D02*
G01*
X1784502Y6309969D01*
X1784502Y6287211D01*
X1821484Y6287211D01*
X1821484Y6254191D01*
X1784502Y6254191D01*
X1784502Y6230010D01*
X1789480Y6224981D01*
X1869490Y6224981D01*
X1874520Y6230010D01*
X1874520Y6309969D01*
X1869490Y6314998D01*
G37*
G36*
X4069486Y5395010D02*
G01*
X4064508Y5389981D01*
X4064508Y5367172D01*
X4101490Y5367172D01*
X4101490Y5334203D01*
X4064508Y5334203D01*
X4064508Y5309971D01*
X4069486Y5304993D01*
X4149496Y5304993D01*
X4154474Y5309971D01*
X4154474Y5389981D01*
X4149496Y5395010D01*
G37*
G36*
X3910482Y5395010D02*
G01*
X3905504Y5389981D01*
X3905504Y5309971D01*
X3910482Y5304993D01*
X3990492Y5304993D01*
X3995470Y5309971D01*
X3995470Y5332780D01*
X3958488Y5332780D01*
X3958488Y5365800D01*
X3995470Y5365800D01*
X3995470Y5389981D01*
X3990492Y5395010D01*
G37*
G36*
X3130499Y6644995D02*
G01*
X3125470Y6639966D01*
X3125470Y6560007D01*
X3130499Y6554978D01*
X3210509Y6554978D01*
X3215487Y6560007D01*
X3215487Y6582765D01*
X3178505Y6582765D01*
X3178505Y6615785D01*
X3215487Y6615785D01*
X3215487Y6639966D01*
X3210509Y6644995D01*
G37*
G36*
X3289503Y6644995D02*
G01*
X3284474Y6639966D01*
X3284474Y6617208D01*
X3321507Y6617208D01*
X3321507Y6584188D01*
X3284474Y6584188D01*
X3284474Y6560007D01*
X3289503Y6554978D01*
X3369513Y6554978D01*
X3374491Y6560007D01*
X3374491Y6639966D01*
X3369513Y6644995D01*
G37*
G36*
X1399997Y6135471D02*
G01*
X1395018Y6130493D01*
X1395018Y6050483D01*
X1399997Y6045504D01*
X1480007Y6045504D01*
X1484985Y6050483D01*
X1484985Y6130493D01*
X1480007Y6135471D01*
X1457198Y6135471D01*
X1457198Y6098489D01*
X1424178Y6098489D01*
X1424178Y6135471D01*
G37*
G36*
X1399997Y6294475D02*
G01*
X1395018Y6289497D01*
X1395018Y6209487D01*
X1399997Y6204508D01*
X1422806Y6204508D01*
X1422806Y6241491D01*
X1455775Y6241491D01*
X1455775Y6204508D01*
X1480007Y6204508D01*
X1484985Y6209487D01*
X1484985Y6289497D01*
X1480007Y6294475D01*
G37*
G36*
X1350010Y5144516D02*
G01*
X1344980Y5139486D01*
X1344980Y5059476D01*
X1350010Y5054498D01*
X1372819Y5054498D01*
X1372819Y5091480D01*
X1405788Y5091480D01*
X1405788Y5054498D01*
X1430020Y5054498D01*
X1434998Y5059476D01*
X1434998Y5139486D01*
X1430020Y5144516D01*
G37*
G36*
X1350010Y4985512D02*
G01*
X1344980Y4980482D01*
X1344980Y4900472D01*
X1350010Y4895494D01*
X1429969Y4895494D01*
X1434998Y4900472D01*
X1434998Y4980482D01*
X1429969Y4985512D01*
X1407210Y4985512D01*
X1407210Y4948478D01*
X1374190Y4948478D01*
X1374190Y4985512D01*
G37*
D10*
G01*
X809995Y7529984D03*
G01*
X809995Y7389980D03*
D11*
G01*
X3999991Y7173518D03*
G01*
X4199991Y7173518D03*
D12*
G01*
X3764991Y6566458D03*
G01*
X4434992Y6566458D03*
D10*
G01*
X1170000Y6679996D03*
G01*
X1170000Y6819976D03*
D13*
G01*
X1210005Y7489977D03*
G01*
X970000Y7489977D03*
D10*
G01*
X870000Y5809995D03*
G01*
X870000Y5669991D03*
D14*
G01*
X2119985Y6769988D03*
G01*
X2259990Y6769988D03*
D15*
G01*
X3164687Y5049773D03*
G01*
X3164687Y4859273D03*
D16*
G01*
X1900681Y5850026D03*
G01*
X1900681Y5596026D03*
G01*
X1900681Y5342026D03*
G01*
X1900681Y5088026D03*
G01*
X1900681Y4834026D03*
G01*
X1900681Y4580026D03*
G01*
X1900681Y4326026D03*
G01*
X3539083Y5850839D03*
G01*
X3539083Y5596839D03*
G01*
X3539083Y5342839D03*
G01*
X3539083Y5088839D03*
G01*
X3539083Y4834839D03*
G01*
X3539083Y4580839D03*
G01*
X3539083Y4326839D03*
D17*
G01*
X2846984Y4224273D03*
G01*
X2592984Y4224273D03*
G01*
X2592984Y4478273D03*
G01*
X2846984Y4478273D03*
G01*
X2592984Y4732273D03*
G01*
X2846984Y4732273D03*
D18*
G01*
X2478786Y5150993D03*
D14*
G01*
X940003Y4819980D03*
G01*
X1080007Y4819980D03*
D20*
G01*
X934999Y5424982D03*
G01*
X1029995Y5194985D03*
G01*
X1125016Y5424982D03*
D14*
G01*
X2880004Y6499987D03*
G01*
X2739999Y6499987D03*
G01*
X1899996Y6509994D03*
G01*
X1759991Y6509994D03*
D21*
G01*
X2079980Y6499987D03*
G01*
X2079980Y6449974D03*
G01*
X2079980Y6399987D03*
G01*
X2079980Y6349974D03*
G01*
X2079980Y6299987D03*
D22*
G01*
X2169998Y6259982D03*
G01*
X2219985Y6259982D03*
G01*
X2269997Y6259982D03*
D21*
G01*
X2359990Y6299987D03*
G01*
X2359990Y6349974D03*
G01*
X2359990Y6399987D03*
G01*
X2359990Y6449974D03*
G01*
X2359990Y6499987D03*
D22*
G01*
X2269997Y6539966D03*
G01*
X2219985Y6539966D03*
G01*
X2169998Y6539966D03*
M02*
